<svg xmlns="http://www.w3.org/2000/svg" width="600" height="700" viewBox="0 0 600 700">
  <defs>
    <linearGradient id="bg" x1="0" y1="0" x2="1" y2="1">
      <stop offset="0%" stop-color="#FDF2F4"/>
      <stop offset="100%" stop-color="#F8F5F0"/>
    </linearGradient>
    <linearGradient id="hero" x1="0" y1="0" x2="1" y2="1">
      <stop offset="0%" stop-color="#C41E3A"/>
      <stop offset="100%" stop-color="#8B0000"/>
    </linearGradient>
    <linearGradient id="gold" x1="0" y1="0" x2="1" y2="1">
      <stop offset="0%" stop-color="#C9A96E"/>
      <stop offset="100%" stop-color="#B08D4B"/>
    </linearGradient>
  </defs>
  
    <rect width="600" height="700" fill="url(#bg)" rx="8"/>
    <rect x="30" y="30" width="540" height="450" fill="#C41E3A" rx="8"/>
    <!-- Talisman detail motif -->
    <rect x="100" y="80" width="400" height="350" fill="none" stroke="#C9A96E" stroke-width="2" rx="4" opacity="0.5"/>
    <rect x="130" y="110" width="340" height="290" fill="none" stroke="#C9A96E" stroke-width="1" rx="2" opacity="0.3"/>
    <path d="M200,200 Q300,150 400,200 Q400,280 300,330 Q200,280 200,200Z" fill="none" stroke="#C9A96E" stroke-width="2" opacity="0.6"/>
    <text x="300" y="270" font-family="serif" font-size="48" fill="#C9A96E" text-anchor="middle" opacity="0.8">敕令</text>
    <text x="300" y="320" font-family="serif" font-size="24" fill="#C9A96E" text-anchor="middle" opacity="0.6">护身平安</text>
    <!-- Decor lines -->
    <line x1="100" y1="120" x2="500" y2="120" stroke="#C9A96E" stroke-width="1" opacity="0.2"/>
    <line x1="100" y1="390" x2="500" y2="390" stroke="#C9A96E" stroke-width="1" opacity="0.2"/>
    <text x="300" y="550" font-family="'Playfair Display', serif" font-size="24" fill="#1A1A1A" text-anchor="middle" font-weight="600">Protection Talisman</text>
    <text x="300" y="580" font-family="'Noto Serif SC', serif" font-size="16" fill="#C41E3A" text-anchor="middle">护身符 · 平安</text>
    <text x="300" y="610" font-family="Inter, sans-serif" font-size="14" fill="#6B6B6B" text-anchor="middle">Hand-drawn on authentic red paper with gold cinnabar ink</text>
    <text x="300" y="650" font-family="Inter, sans-serif" font-size="20" fill="#C41E3A" text-anchor="middle" font-weight="600">$22.00</text>
    <text x="300" y="678" font-family="Inter, sans-serif" font-size="13" fill="#6B6B6B" text-anchor="middle">★ Free shipping on orders over $50</text>
    
</svg>