<svg xmlns="http://www.w3.org/2000/svg" width="1200" height="500" viewBox="0 0 1200 500">
  <defs>
    <linearGradient id="bg" x1="0" y1="0" x2="1" y2="1">
      <stop offset="0%" stop-color="#FDF2F4"/>
      <stop offset="100%" stop-color="#F8F5F0"/>
    </linearGradient>
    <linearGradient id="hero" x1="0" y1="0" x2="1" y2="1">
      <stop offset="0%" stop-color="#C41E3A"/>
      <stop offset="100%" stop-color="#8B0000"/>
    </linearGradient>
    <linearGradient id="gold" x1="0" y1="0" x2="1" y2="1">
      <stop offset="0%" stop-color="#C9A96E"/>
      <stop offset="100%" stop-color="#B08D4B"/>
    </linearGradient>
  </defs>
  
    <rect width="1200" height="500" fill="url(#hero)" rx="0"/>
    <rect x="40" y="40" width="1120" height="420" fill="none" stroke="#C9A96E" stroke-width="2" opacity="0.3" rx="8"/>
    <!-- Decorative lines -->
    <line x1="100" y1="250" x2="1100" y2="250" stroke="#C9A96E" stroke-width="1" opacity="0.15"/>
    <line x1="100" y1="260" x2="1100" y2="260" stroke="#C9A96E" stroke-width="1" opacity="0.15"/>
    <!-- Chinese pattern top -->
    <path d="M0,0 Q300,20 600,0 Q900,-20 1200,0" fill="none" stroke="#C9A96E" stroke-width="1" opacity="0.2"/>
    <path d="M0,500 Q300,480 600,500 Q900,520 1200,500" fill="none" stroke="#C9A96E" stroke-width="1" opacity="0.2"/>
    <!-- Central circle motif -->
    <circle cx="200" cy="250" r="80" fill="none" stroke="#C9A96E" stroke-width="1" opacity="0.15"/>
    <circle cx="200" cy="250" r="60" fill="none" stroke="#C9A96E" stroke-width="1" opacity="0.1"/>
    <circle cx="1000" cy="250" r="80" fill="none" stroke="#C9A96E" stroke-width="1" opacity="0.15"/>
    <circle cx="1000" cy="250" r="60" fill="none" stroke="#C9A96E" stroke-width="1" opacity="0.1"/>
    <!-- Text overlay suggestions -->
    <text x="600" y="200" font-family="'Playfair Display', serif" font-size="48" fill="#C9A96E" text-anchor="middle" font-weight="600" letter-spacing="3">Authentic Chinese</text>
    <text x="600" y="270" font-family="'Playfair Display', serif" font-size="36" fill="#FFFFFF" text-anchor="middle" font-weight="400" letter-spacing="4">TALISMAN PAPER</text>
    <text x="600" y="320" font-family="Inter, sans-serif" font-size="14" fill="rgba(255,255,255,0.6)" text-anchor="middle" letter-spacing="2">Curated by Purpose · Delivered with Meaning</text>
    <!-- Calligraphy stroke decor -->
    <path d="M420,380 Q500,350 550,390 Q600,430 700,370 Q800,310 900,380" fill="none" stroke="#C9A96E" stroke-width="1.5" opacity="0.2"/>
    
</svg>