<svg xmlns="http://www.w3.org/2000/svg" width="400" height="500" viewBox="0 0 400 500">
  <defs>
    <linearGradient id="bg" x1="0" y1="0" x2="1" y2="1">
      <stop offset="0%" stop-color="#FDF2F4"/>
      <stop offset="100%" stop-color="#F8F5F0"/>
    </linearGradient>
    <linearGradient id="hero" x1="0" y1="0" x2="1" y2="1">
      <stop offset="0%" stop-color="#C41E3A"/>
      <stop offset="100%" stop-color="#8B0000"/>
    </linearGradient>
    <linearGradient id="gold" x1="0" y1="0" x2="1" y2="1">
      <stop offset="0%" stop-color="#C9A96E"/>
      <stop offset="100%" stop-color="#B08D4B"/>
    </linearGradient>
  </defs>
  
    <rect width="400" height="500" fill="url(#bg)" rx="10"/>
    <rect x="0" y="0" width="400" height="340" fill="#8B2252" rx="10"/>
    <!-- Double happiness / heart motif -->
    <path d="M200,120 Q160,100 140,140 Q120,180 200,220 Q280,180 260,140 Q240,100 200,120Z" fill="none" stroke="#C9A96E" stroke-width="2" opacity="0.7"/>
    <path d="M200,140 Q170,125 155,155 Q140,185 200,210 Q260,185 245,155 Q230,125 200,140Z" fill="none" stroke="#C9A96E" stroke-width="1" opacity="0.4"/>
    <path d="M80,80 Q200,50 320,80" fill="none" stroke="#C9A96E" stroke-width="1.5" opacity="0.3"/>
    <path d="M80,260 Q200,290 320,260" fill="none" stroke="#C9A96E" stroke-width="1.5" opacity="0.3"/>
    <text x="200" y="400" font-family="'Playfair Display', serif" font-size="20" fill="#1A1A1A" text-anchor="middle" font-weight="600">Love Talisman</text>
    <text x="200" y="425" font-family="'Noto Serif SC', serif" font-size="14" fill="#8B2252" text-anchor="middle">姻缘符</text>
    <text x="200" y="450" font-family="Inter, sans-serif" font-size="12" fill="#6B6B6B" text-anchor="middle">Attract love & deepen bonds</text>
    <text x="200" y="478" font-family="Inter, sans-serif" font-size="16" fill="#C41E3A" text-anchor="middle" font-weight="600">$18.00</text>
    
</svg>